<?xml version="1.0" standalone="no"?>
<!DOCTYPE svg PUBLIC "-//W3C//DTD SVG 20010904//EN"
 "http://www.w3.org/TR/2001/REC-SVG-20010904/DTD/svg10.dtd">
<svg version="1.0" xmlns="http://www.w3.org/2000/svg"
 width="512.000000pt" height="512.000000pt" viewBox="0 0 512.000000 512.000000"
 preserveAspectRatio="xMidYMid meet">
<metadata>
Created by potrace 1.11, written by Peter Selinger 2001-2013
</metadata>
<g transform="translate(0.000000,512.000000) scale(0.100000,-0.100000)"
fill="#000000" stroke="none">
<path d="M2379 5116 c-2 -2 -38 -6 -79 -10 -64 -6 -207 -29 -315 -51 -16 -3
-77 -19 -135 -36 -495 -140 -955 -446 -1281 -851 -82 -102 -219 -300 -219
-317 0 -5 -4 -11 -8 -13 -19 -8 -168 -333 -207 -453 -98 -298 -130 -505 -129
-835 0 -184 3 -241 19 -345 3 -16 7 -43 9 -60 14 -98 50 -247 92 -377 14 -43
22 -83 18 -89 -4 -8 -3 -9 4 -5 7 4 14 -4 18 -21 4 -15 23 -62 42 -103 49
-107 62 -139 61 -146 0 -4 3 -10 8 -13 4 -3 21 -31 37 -61 32 -60 192 -307
213 -328 7 -8 26 -30 41 -50 87 -114 219 -244 422 -416 76 -64 317 -214 435
-271 33 -15 63 -33 67 -39 4 -6 8 -8 8 -4 0 6 34 -7 115 -42 39 -17 171 -62
250 -85 359 -104 801 -123 1185 -49 192 36 420 111 595 194 50 24 96 43 103
43 6 0 12 4 12 8 0 4 19 17 43 29 23 12 61 35 85 51 24 16 46 29 49 29 11 0
178 123 263 194 240 200 462 469 605 734 15 28 32 52 37 52 5 0 7 3 5 8 -3 4
4 25 15 47 126 256 210 547 243 845 12 108 13 508 2 555 -3 12 -8 48 -12 80
-4 33 -9 69 -12 80 -2 11 -8 43 -14 70 -6 28 -13 61 -15 75 -12 61 -74 266
-99 325 -6 17 -25 62 -41 100 -31 76 -111 236 -138 278 -10 14 -14 32 -10 38
4 7 3 9 -3 6 -6 -4 -28 21 -49 56 -143 234 -394 499 -649 688 -33 24 -61 47
-63 52 -2 4 -8 7 -14 7 -6 0 -41 20 -77 43 -231 152 -622 304 -875 342 -21 3
-41 7 -45 9 -3 2 -35 7 -71 11 -36 4 -74 9 -85 12 -23 5 -451 14 -456 9z"/>
</g>
</svg>
